<svg width="25" height="25" viewBox="0 0 25 25" fill="none" xmlns="http://www.w3.org/2000/svg">
<path d="M12.5 2.0835C6.7604 2.0835 2.08331 6.76058 2.08331 12.5002C2.08331 18.2397 6.7604 22.9168 12.5 22.9168C18.2396 22.9168 22.9166 18.2397 22.9166 12.5002C22.9166 6.76058 18.2396 2.0835 12.5 2.0835ZM17.4791 10.1043L11.5729 16.0106C11.4271 16.1564 11.2291 16.2397 11.0208 16.2397C10.8125 16.2397 10.6146 16.1564 10.4687 16.0106L7.52081 13.0627C7.21873 12.7606 7.21873 12.2606 7.52081 11.9585C7.8229 11.6564 8.3229 11.6564 8.62498 11.9585L11.0208 14.3543L16.375 9.00016C16.6771 8.69808 17.1771 8.69808 17.4791 9.00016C17.7812 9.30225 17.7812 9.79183 17.4791 10.1043Z" fill="#8B8B8B"/>
</svg>
