<svg width="20" height="20" viewBox="0 0 20 20" fill="none" xmlns="http://www.w3.org/2000/svg">
<path d="M15.45 3.43337L10.8667 1.7167C10.3917 1.5417 9.61671 1.5417 9.14171 1.7167L4.55837 3.43337C3.67504 3.7667 2.95837 4.80003 2.95837 5.7417V12.4917C2.95837 13.1667 3.40004 14.0584 3.94171 14.4584L8.52504 17.8834C9.33337 18.4917 10.6584 18.4917 11.4667 17.8834L16.05 14.4584C16.5917 14.05 17.0334 13.1667 17.0334 12.4917V5.7417C17.0417 4.80003 16.325 3.7667 15.45 3.43337ZM12.9 8.10003L9.31671 11.6834C9.19171 11.8084 9.03337 11.8667 8.87504 11.8667C8.71671 11.8667 8.55837 11.8084 8.43337 11.6834L7.10004 10.3334C6.85837 10.0917 6.85837 9.6917 7.10004 9.45003C7.34171 9.20837 7.74171 9.20837 7.98337 9.45003L8.88337 10.35L12.025 7.20837C12.2667 6.9667 12.6667 6.9667 12.9084 7.20837C13.15 7.45003 13.15 7.85837 12.9 8.10003Z" fill="#3D3D3D"/>
</svg>
