<svg width="25" height="25" viewBox="0 0 25 25" fill="none" xmlns="http://www.w3.org/2000/svg">
<path d="M12.5 2.0835C6.76043 2.0835 2.08334 6.76058 2.08334 12.5002C2.08334 18.2397 6.76043 22.9168 12.5 22.9168C18.2396 22.9168 22.9167 18.2397 22.9167 12.5002C22.9167 6.76058 18.2396 2.0835 12.5 2.0835ZM8.33334 13.5418C7.75001 13.5418 7.29168 13.0731 7.29168 12.5002C7.29168 11.9272 7.76043 11.4585 8.33334 11.4585C8.90626 11.4585 9.37501 11.9272 9.37501 12.5002C9.37501 13.0731 8.91668 13.5418 8.33334 13.5418ZM12.5 13.5418C11.9167 13.5418 11.4583 13.0731 11.4583 12.5002C11.4583 11.9272 11.9271 11.4585 12.5 11.4585C13.0729 11.4585 13.5417 11.9272 13.5417 12.5002C13.5417 13.0731 13.0833 13.5418 12.5 13.5418ZM16.6667 13.5418C16.0833 13.5418 15.625 13.0731 15.625 12.5002C15.625 11.9272 16.0938 11.4585 16.6667 11.4585C17.2396 11.4585 17.7083 11.9272 17.7083 12.5002C17.7083 13.0731 17.25 13.5418 16.6667 13.5418Z" fill="#8B8B8B"/>
</svg>
