<svg width="44" height="32" viewBox="0 0 44 32" fill="none" xmlns="http://www.w3.org/2000/svg">
<mask id="mask0_58_1673" style="mask-type:luminance" maskUnits="userSpaceOnUse" x="0" y="0" width="44" height="32">
<path d="M0.0980726 19.7381L0.0198031 24.3333L1.25986 27.2623L16.5799 31.4304L39.7873 26.9247L43.73 5.4072L27.7329 0L5.31478 11.8291L4.64619 12.8767L0 19.5146L0.0980726 19.7381Z" fill="white"/>
</mask>
<g mask="url(#mask0_58_1673)">
<path d="M11.3529 18.8393V25.0245L10.2288 26.1495C4.8867 26.1495 1.62484 24.0127 0.163185 19.5145C-1.13062 24.0127 -4.1671 26.1495 -9.17163 26.1495V19.9644L-8.04662 18.8393H-7.48459C-3.26747 18.8393 -1.29847 16.9835 -1.29847 12.9352V6.46899H4.60569V12.9352C4.60569 16.9835 6.57374 18.8393 10.7909 18.8393H11.3529Z" fill="#252E40"/>
<path d="M35.6494 4.4999C38.8547 8.99804 40.3164 12.7097 40.3164 16.0272C40.3164 22.1567 36.3803 26.7671 31.0947 26.7671C27.946 26.7671 25.9214 25.5865 23.0537 23.7306L20.186 21.8191C17.1495 24.799 14.0009 26.1494 9.55835 26.1494V19.9643L10.6834 18.8392C15.3503 18.8392 17.4315 16.7024 21.7608 9.78639L26.0911 2.92603H34.5254L35.6504 4.50085L35.6494 4.4999ZM34.4122 16.9834C34.4122 15.5218 33.8502 14.3967 32.2754 12.1477L29.5765 8.32379L26.54 13.2161C25.9214 14.228 25.3028 15.1842 24.6842 16.0838L25.977 16.9268C28.8447 18.8383 30.4195 19.4569 31.769 19.4569C33.2872 19.4569 34.4122 18.3885 34.4122 16.9825V16.9834Z" fill="#252E40"/>
<path d="M4.60567 12.9353C4.93855 15.1334 6.31157 17.0591 8.32017 18.0115C10.8984 19.2336 14.6147 19.5693 18.1142 14.6987L25.927 2.92529H34.5244L21.7759 20.1672C20.1115 22.3644 17.6606 24.2891 15.1532 25.433C12.1082 26.822 6.78213 26.9418 2.93844 24.0213C1.48621 22.918 1.03828 21.8495 0.000976562 19.5137L4.60567 12.9344V12.9353Z" fill="white"/>
</g>
<path d="M4.96486 9.35463C5.01578 8.43143 5.03653 7.56386 5.02804 6.75288C5.0205 5.94189 4.99504 5.15637 4.95166 4.39536L5.25059 4.12755C5.75887 4.07097 6.41426 4.03419 7.21487 4.01439C8.01549 3.99553 8.78498 3.99553 9.52052 4.01439C10.257 4.03419 10.7587 4.08229 11.0284 4.16056L11.2962 4.45949C11.4405 5.28839 11.5367 6.03148 11.5848 6.68592C11.6329 7.34131 11.5914 7.90806 11.4603 8.38428C11.9884 8.35033 12.5627 8.3343 13.1841 8.33618C13.8046 8.33901 14.3827 8.35976 14.9173 8.39937C15.452 8.43897 15.8226 8.48612 16.031 8.53893L16.2696 8.80486C16.5091 10.1864 16.6072 11.2868 16.5629 12.1054C16.5176 12.9239 16.2743 13.5321 15.8311 13.9292C14.989 14.6836 13.1445 14.7401 10.2947 14.0998L10.0269 13.8009C10.0656 13.087 10.0873 12.409 10.091 11.7668C10.0939 11.1247 10.091 10.5296 10.0788 9.98173C9.05279 10.2627 7.43742 10.1534 5.23268 9.65356L4.96486 9.35463Z" fill="#252E40"/>
</svg>
