<svg width="30" height="30" viewBox="0 0 30 30" fill="none" xmlns="http://www.w3.org/2000/svg">
<path d="M20.2375 2.5H9.7625C5.2125 2.5 2.5 5.2125 2.5 9.7625V20.225C2.5 24.7875 5.2125 27.5 9.7625 27.5H20.225C24.775 27.5 27.4875 24.7875 27.4875 20.2375V9.7625C27.5 5.2125 24.7875 2.5 20.2375 2.5ZM20.4625 17.9375L17.6875 20.7125C17.0125 21.3875 16.1375 21.7125 15.2625 21.7125C14.3875 21.7125 13.5 21.375 12.8375 20.7125C12.1875 20.0625 11.825 19.2 11.825 18.2875C11.825 17.375 12.1875 16.5 12.8375 15.8625L14.6 14.1C14.9625 13.7375 15.5625 13.7375 15.925 14.1C16.2875 14.4625 16.2875 15.0625 15.925 15.425L14.1625 17.1875C13.8625 17.4875 13.7 17.875 13.7 18.2875C13.7 18.7 13.8625 19.1 14.1625 19.3875C14.775 20 15.7625 20 16.375 19.3875L19.15 16.6125C20.7375 15.025 20.7375 12.45 19.15 10.8625C17.5625 9.275 14.9875 9.275 13.4 10.8625L10.375 13.8875C9.7375 14.525 9.3875 15.3625 9.3875 16.25C9.3875 17.1375 9.7375 17.9875 10.375 18.6125C10.7375 18.975 10.7375 19.575 10.375 19.9375C10.0125 20.3 9.4125 20.3 9.05 19.9375C8.05 18.975 7.5 17.6625 7.5 16.2625C7.5 14.8625 8.0375 13.55 9.025 12.5625L12.05 9.5375C14.3625 7.225 18.1375 7.225 20.45 9.5375C22.775 11.85 22.775 15.625 20.4625 17.9375Z" fill="#04BF8A"/>
</svg>
