<svg width="177" height="70" viewBox="0 0 177 70" fill="none" xmlns="http://www.w3.org/2000/svg">
<g clip-path="url(#clip0_1_389)">
<path d="M46.3861 45.2287C46.3861 61.5178 38.0593 70 22.6725 70C8.62314 70 0 61.1418 0 46.1291C0 42.2256 0.519277 37.872 1.56045 33.1423H9.36534C8.54709 37.1199 8.17468 40.6473 8.17468 43.8013C8.17468 54.3094 13.3045 59.8653 23.8605 59.8653C33.0056 59.8653 37.464 55.3607 37.464 45.9781V0.865967H46.3835V45.2287H46.3861Z" fill="#252E40"/>
<path d="M69.2999 53.4117C59.1163 53.4117 54.0599 47.8557 54.0599 35.772V0.865967H62.9794V35.7693C62.9794 41.1743 64.9122 43.6504 70.0421 43.6504H70.7843V51.9075L69.2972 53.409L69.2999 53.4117Z" fill="#252E40"/>
<path d="M96.4334 43.653V51.9101L94.9464 53.4116C87.8837 53.4116 83.5721 50.5595 81.6393 44.5534C79.9293 50.5595 75.9141 53.4116 69.2999 53.4116V45.1545L70.7869 43.653H71.5291C77.1048 43.653 79.7064 41.1769 79.7064 35.7719V27.1388H87.5113V35.7719C87.5113 41.1769 90.1129 43.653 95.6886 43.653H96.4308H96.4334Z" fill="#252E40"/>
<path d="M122.08 43.653V51.9101L120.593 53.4116C113.53 53.4116 109.219 50.5595 107.286 44.5534C105.576 50.5595 101.561 53.4116 94.9464 53.4116V45.1545L96.4334 43.653H97.1756C102.751 43.653 105.353 41.1769 105.353 35.7719V27.1388H113.158V35.7719C113.158 41.1769 115.759 43.653 121.335 43.653H122.077H122.08Z" fill="#252E40"/>
<path d="M154.199 24.5117C158.437 30.5179 160.37 35.47 160.37 39.9004C160.37 48.0834 155.167 54.2378 148.178 54.2378C144.015 54.2378 141.338 52.6621 137.548 50.1834L133.756 47.6306C129.741 51.6082 125.578 53.4116 119.706 53.4116V45.1545L121.193 43.653C127.364 43.653 130.113 40.8008 135.838 31.5665L141.563 22.4091H152.715L154.202 24.5117H154.199ZM152.565 41.1742C152.565 39.2225 151.823 37.721 149.741 34.7179L146.171 29.6148L142.156 36.1453C141.338 37.4959 140.519 38.7723 139.704 39.9746L141.414 41.1001C145.206 43.653 147.286 44.4792 149.072 44.4792C151.078 44.4792 152.565 43.0518 152.565 41.1769V41.1742Z" fill="#252E40"/>
<path d="M168.081 53.4117V0.865967H177V53.409H168.081V53.4117Z" fill="#252E40"/>
<path d="M113.16 35.7693C113.601 38.7035 115.416 41.2749 118.07 42.546C121.479 44.1773 126.391 44.6248 131.018 38.1235L141.346 22.4091H152.712L135.859 45.4246C133.659 48.3588 130.42 50.9276 127.102 52.4529C123.076 54.3067 116.035 54.4682 110.955 50.5701C109.035 49.0977 108.442 47.6703 107.071 44.5533L113.158 35.7719L113.16 35.7693Z" fill="#04BF8A"/>
<path d="M77.2097 21.3128C76.3888 20.2614 75.5889 19.2975 74.81 18.4236C74.0337 17.5497 73.26 16.7208 72.4916 15.9342L72.5598 15.3569C73.0528 14.8088 73.7242 14.1414 74.5661 13.3523C75.4105 12.5657 76.2393 11.8269 77.0471 11.1436C77.8574 10.4604 78.4449 10.0314 78.8094 9.85662L79.3812 9.92547C80.404 10.7411 81.2301 11.48 81.8595 12.142C82.4916 12.8041 82.9637 13.4343 83.281 14.0355C84.1071 13.2225 85.0434 12.3698 86.0951 11.4773C87.1441 10.5849 87.8968 10.034 88.3505 9.82749L88.8593 9.8884C90.4276 11.1595 91.5763 12.2638 92.3054 13.196C93.0345 14.1282 93.3466 15.0233 93.2469 15.8786C93.0555 17.5046 91.1226 19.3345 87.4483 21.3684L86.8766 21.2995C86.2419 20.4865 85.6204 19.7291 85.0172 19.0274C84.4113 18.3256 83.8422 17.6821 83.3098 17.0995C82.4732 18.3891 80.6295 19.8165 77.7814 21.3843L77.2097 21.3154V21.3128ZM82.9033 10.6723C82.6096 10.2459 82.1323 9.64741 81.4714 8.87414C80.8105 8.10086 80.1863 7.38584 79.5962 6.72909C79.0088 6.07233 78.6364 5.66981 78.4816 5.52151L78.5419 5.00776C79.2841 4.18416 80.0735 3.41354 80.9075 2.68793C81.7441 1.96497 82.5152 1.35058 83.2181 0.850074C83.9209 0.349563 84.3641 0.0662051 84.5425 0L84.9883 0.0529641C86.5409 1.45386 87.6372 2.55022 88.2771 3.34203C88.9144 4.13385 89.195 4.85151 89.1216 5.49238C88.9852 6.647 87.1048 8.39746 83.4803 10.7385L82.9086 10.6696L82.9033 10.6723Z" fill="#252E40"/>
<path d="M103.716 21.514C102.848 20.4812 102.004 19.5358 101.183 18.6804C100.365 17.825 99.5517 17.0147 98.7465 16.2494L98.7937 15.6615C99.2737 15.0895 99.9267 14.3877 100.75 13.5588C101.576 12.7299 102.384 11.954 103.179 11.231C103.973 10.5081 104.553 10.0552 104.912 9.86454L105.492 9.91221C106.473 10.6484 107.317 11.3422 108.02 11.9911C108.726 12.6399 109.247 13.2834 109.586 13.9242C110.108 13.3549 110.698 12.759 111.353 12.1341C112.009 11.5091 112.638 10.9503 113.244 10.4524C113.848 9.95458 114.285 9.6315 114.558 9.47791L115.075 9.52028C116.709 10.749 117.91 11.8189 118.681 12.7352C119.452 13.6515 119.803 14.5439 119.733 15.4125C119.599 17.065 117.711 18.9876 114.07 21.1803L113.488 21.1327C112.814 20.3329 112.161 19.5914 111.524 18.9055C110.887 18.2196 110.286 17.5894 109.727 17.02C108.928 18.3547 107.115 19.8668 104.293 21.5617L103.711 21.514H103.716Z" fill="#252E40"/>
<path d="M58.3478 67.5663C57.5165 67.5663 56.79 67.3703 56.1658 66.9731C55.5417 66.5785 55.0643 66.0409 54.7313 65.355C54.3982 64.6718 54.233 63.8959 54.233 63.0325C54.233 62.1692 54.3982 61.3933 54.7313 60.7101C55.0643 60.0268 55.5417 59.4866 56.1658 59.092C56.79 58.6974 57.5165 58.5015 58.3478 58.5015C58.972 58.5015 59.5411 58.618 60.0552 58.8537C60.5692 59.0894 60.9862 59.4257 61.3009 59.8679C61.6156 60.3102 61.7966 60.8186 61.8359 61.3986H60.5902C60.5325 60.861 60.3017 60.4347 59.8978 60.1142C59.4939 59.7964 58.9983 59.6349 58.4082 59.6349H58.2849C57.7027 59.6349 57.1991 59.7832 56.7769 60.0824C56.352 60.3817 56.0321 60.7869 55.8118 61.3033C55.5915 61.8197 55.4813 62.397 55.4813 63.0352C55.4813 63.6734 55.5915 64.2507 55.8118 64.7671C56.0321 65.2835 56.3547 65.6913 56.7769 65.9879C57.1991 66.2845 57.7027 66.4355 58.2849 66.4355H58.4082C58.9983 66.4355 59.4939 66.2766 59.8978 65.9562C60.3017 65.6384 60.5325 65.2094 60.5902 64.6718H61.8359C61.794 65.2517 61.6156 65.7602 61.3009 66.2024C60.9862 66.6447 60.5692 66.981 60.0552 67.2167C59.5385 67.4524 58.9694 67.5689 58.3478 67.5689V67.5663Z" fill="#252E40"/>
<path d="M72.1743 67.5663C71.6183 67.5663 71.1095 67.4286 70.6531 67.1505C70.1968 66.8724 69.8375 66.4884 69.5752 65.9932C69.313 65.498 69.1819 64.9313 69.1819 64.2931C69.1819 63.6549 69.313 63.0881 69.5752 62.5929C69.8375 62.0977 70.1968 61.7111 70.6531 61.4357C71.1095 61.1576 71.6183 61.0199 72.1743 61.0199C72.7302 61.0199 73.239 61.1576 73.6954 61.4357C74.1517 61.7137 74.511 62.0977 74.7733 62.5929C75.0355 63.0881 75.1666 63.6549 75.1666 64.2931C75.1666 64.9313 75.0355 65.498 74.7733 65.9932C74.511 66.4884 74.1517 66.8751 73.6954 67.1505C73.239 67.4259 72.7302 67.5663 72.1743 67.5663ZM72.2241 66.5599C72.565 66.5599 72.8692 66.4699 73.1341 66.2898C73.399 66.1098 73.6088 65.8502 73.7583 65.5086C73.9078 65.167 73.9839 64.7645 73.9839 64.2931C73.9839 63.8217 73.9078 63.4192 73.7583 63.0776C73.6088 62.7359 73.4016 62.4764 73.1341 62.2963C72.8692 62.1163 72.565 62.0262 72.2241 62.0262H72.1244C71.7835 62.0262 71.4793 62.1163 71.2144 62.2963C70.9495 62.4764 70.7397 62.7359 70.5902 63.0776C70.4407 63.4192 70.3646 63.8217 70.3646 64.2931C70.3646 64.7645 70.4407 65.167 70.5902 65.5086C70.7397 65.8502 70.9469 66.1098 71.2144 66.2898C71.4793 66.4699 71.7835 66.5599 72.1244 66.5599H72.2241Z" fill="#252E40"/>
<path d="M82.8824 67.4418V61.147H84.0678V62.0288C84.2671 61.7269 84.5241 61.4833 84.8415 61.2979C85.1562 61.1125 85.5233 61.0199 85.9377 61.0199C86.4019 61.0199 86.811 61.1152 87.1651 61.3085C87.5191 61.5018 87.7945 61.7958 87.9938 62.1904C88.2194 61.7799 88.5131 61.4806 88.8803 61.2953C89.2448 61.1099 89.6356 61.0172 90.0526 61.0172C90.7581 61.0172 91.3088 61.2158 91.7048 61.6157C92.0982 62.0156 92.2975 62.5505 92.2975 63.2205V67.4391H91.1121V63.4747C91.1121 63.014 91.0098 62.6564 90.8079 62.4049C90.6033 62.1533 90.286 62.0262 89.8533 62.0262H89.7536C89.4966 62.0262 89.2474 62.103 89.0062 62.2539C88.7649 62.4049 88.5682 62.6247 88.4135 62.916C88.2587 63.2073 88.1827 63.5383 88.1827 63.917V67.4418H86.9972V63.4774C86.9972 63.0166 86.895 62.6591 86.693 62.4075C86.4885 62.1559 86.1711 62.0288 85.7384 62.0288H85.6387C85.3817 62.0288 85.1326 62.1056 84.8913 62.2566C84.65 62.4075 84.4533 62.6273 84.2986 62.9186C84.1438 63.2099 84.0678 63.5409 84.0678 63.9196V67.4444H82.8824V67.4418Z" fill="#252E40"/>
<path d="M100.338 69.9603V61.147H101.524V62.0289C101.681 61.7429 101.957 61.5046 102.347 61.3112C102.738 61.1179 103.15 61.0226 103.583 61.0226C104.107 61.0226 104.569 61.1523 104.973 61.4119C105.377 61.6714 105.691 62.0474 105.919 62.5374C106.148 63.0273 106.263 63.6125 106.263 64.2931C106.263 64.9737 106.14 65.5484 105.896 66.0436C105.649 66.5388 105.314 66.9175 104.886 67.177C104.459 67.4365 103.981 67.5663 103.459 67.5663C103.035 67.5663 102.646 67.471 102.295 67.2829C101.941 67.0949 101.686 66.8539 101.529 66.56V69.9576H100.344L100.338 69.9603ZM103.381 66.56C103.879 66.56 104.286 66.364 104.603 65.9747C104.918 65.5854 105.078 65.024 105.078 64.2931C105.078 63.5622 104.92 63.0034 104.603 62.6115C104.288 62.2222 103.879 62.0263 103.381 62.0263H103.281C102.974 62.0263 102.686 62.1136 102.421 62.2831C102.156 62.4553 101.938 62.7121 101.773 63.0564C101.608 63.4007 101.524 63.8111 101.524 64.2905C101.524 64.7698 101.608 65.1803 101.773 65.5245C101.938 65.8688 102.156 66.1257 102.421 66.2978C102.686 66.4699 102.974 66.5547 103.281 66.5547H103.381V66.56Z" fill="#252E40"/>
<path d="M114.002 67.4418V58.6285H115.188V67.4418H114.002Z" fill="#252E40"/>
<path d="M123.229 60.0136V58.6285H124.537V60.0136H123.229ZM123.292 67.4418V61.147H124.477V67.4418H123.292Z" fill="#252E40"/>
<path d="M134.262 67.5662C133.871 67.5662 133.52 67.4868 133.208 67.3279C132.896 67.169 132.652 66.9465 132.473 66.6605C132.295 66.3745 132.206 66.0567 132.206 65.7045C132.206 65.0584 132.429 64.5843 132.872 64.2824C133.315 63.9805 133.85 63.8031 134.474 63.7528L136.195 63.6151V63.4138C136.195 62.9769 136.079 62.6379 135.846 62.3943C135.613 62.1506 135.298 62.0288 134.899 62.0288H134.8C134.459 62.0288 134.168 62.1109 133.926 62.2751C133.685 62.4393 133.549 62.6723 133.514 62.9742H132.329C132.363 62.3943 132.612 61.9255 133.084 61.5654C133.554 61.2052 134.141 61.0251 134.849 61.0251C135.382 61.0251 135.838 61.1311 136.221 61.3456C136.604 61.5601 136.892 61.8487 137.086 62.2142C137.281 62.5796 137.38 62.9795 137.38 63.4165V66.0594C137.38 66.6897 137.401 67.1504 137.443 67.4444H136.321C136.279 67.2352 136.258 66.8989 136.258 66.4381C136.124 66.7479 135.877 67.0154 135.516 67.2378C135.154 67.4603 134.737 67.5715 134.262 67.5715V67.5662ZM134.498 66.5599C134.755 66.5599 135.015 66.4963 135.277 66.3719C135.539 66.2448 135.757 66.0753 135.933 65.8608C136.108 65.6463 136.195 65.4185 136.195 65.1749V64.534L134.637 64.6611C134.262 64.6956 133.96 64.7988 133.732 64.9683C133.504 65.1405 133.389 65.3682 133.389 65.6542C133.389 65.9137 133.483 66.1309 133.674 66.303C133.866 66.4752 134.107 66.5599 134.398 66.5599H134.498Z" fill="#252E40"/>
<path d="M145.421 67.4418V61.147H146.607V62.0289C146.814 61.7191 147.081 61.4728 147.404 61.2927C147.729 61.1126 148.128 61.0226 148.6 61.0226C149.305 61.0226 149.856 61.2212 150.252 61.6211C150.648 62.021 150.845 62.5559 150.845 63.2259V67.4445H149.659V63.4801C149.659 63.0193 149.557 62.6618 149.355 62.4102C149.15 62.1587 148.833 62.0316 148.4 62.0316H148.301C148.002 62.0316 147.724 62.1084 147.464 62.2593C147.207 62.4102 146.997 62.63 146.84 62.9134C146.683 63.1994 146.604 63.5357 146.604 63.9197V67.4445H145.419L145.421 67.4418Z" fill="#252E40"/>
<path d="M161.503 67.5663C160.879 67.5663 160.344 67.4233 159.895 67.1373C159.447 66.8512 159.103 66.462 158.867 65.9667C158.631 65.4715 158.513 64.9128 158.513 64.2931C158.513 63.6734 158.631 63.1146 158.867 62.6194C159.103 62.1242 159.447 61.7349 159.895 61.4489C160.344 61.1629 160.881 61.0199 161.503 61.0199C162.219 61.0199 162.806 61.2185 163.273 61.6131C163.737 62.0077 164 62.5453 164.057 63.2232H162.872C162.814 62.871 162.667 62.5823 162.429 62.3599C162.193 62.1374 161.899 62.0262 161.55 62.0262H161.451C160.884 62.0262 160.451 62.246 160.147 62.6803C159.843 63.1173 159.693 63.6549 159.693 64.2931C159.693 64.9313 159.846 65.4689 160.147 65.9058C160.449 66.3428 160.884 66.5599 161.451 66.5599H161.55C161.899 66.5599 162.193 66.4487 162.429 66.2263C162.665 66.0038 162.814 65.7152 162.872 65.363H164.057C164 66.0435 163.737 66.5811 163.273 66.9731C162.806 67.3676 162.219 67.5663 161.503 67.5663Z" fill="#252E40"/>
<path d="M174.32 67.5663C173.787 67.5663 173.3 67.4418 172.854 67.1955C172.408 66.9466 172.051 66.5758 171.781 66.0806C171.511 65.5854 171.375 64.9843 171.375 64.2798C171.375 63.5754 171.508 62.9902 171.781 62.4976C172.051 62.0077 172.408 61.6369 172.854 61.3906C173.297 61.1444 173.774 61.0199 174.28 61.0199C174.787 61.0199 175.277 61.1364 175.676 61.3668C176.074 61.5972 176.381 61.9229 176.599 62.3414C176.814 62.7624 176.924 63.2444 176.924 63.7899V64.4811H172.56C172.584 64.9339 172.683 65.3153 172.859 65.6278C173.035 65.9376 173.252 66.1707 173.515 66.3269C173.777 66.4831 174.039 66.5599 174.307 66.5599H174.406C174.731 66.5599 175.017 66.4752 175.266 66.3084C175.516 66.1415 175.67 65.8979 175.728 65.5775H176.913C176.806 66.1998 176.51 66.6844 176.03 67.0366C175.547 67.3888 174.978 67.5663 174.322 67.5663H174.32ZM175.741 63.5383C175.715 63.0272 175.573 62.6459 175.311 62.3996C175.049 62.1507 174.724 62.0289 174.333 62.0289H174.233C173.869 62.0289 173.538 62.1507 173.242 62.3943C172.945 62.638 172.746 63.0193 172.636 63.541H175.741V63.5383Z" fill="#252E40"/>
</g>
<defs>
<clipPath id="clip0_1_389">
<rect width="177" height="70" fill="white"/>
</clipPath>
</defs>
</svg>
