<svg width="20" height="20" viewBox="0 0 20 20" fill="none" xmlns="http://www.w3.org/2000/svg">
<path d="M13.3334 1.6665H6.66669C3.33335 1.6665 1.66669 3.33317 1.66669 6.6665V17.4998C1.66669 17.9582 2.04169 18.3332 2.50002 18.3332H13.3334C16.6667 18.3332 18.3334 16.6665 18.3334 13.3332V6.6665C18.3334 3.33317 16.6667 1.6665 13.3334 1.6665ZM9.25835 13.8832C9.05002 14.0915 8.66669 14.2832 8.38335 14.3248L6.65002 14.5665C6.58335 14.5748 6.51669 14.5832 6.45835 14.5832C6.16669 14.5832 5.90002 14.4832 5.70835 14.2915C5.47502 14.0582 5.37502 13.7165 5.43335 13.3498L5.67502 11.6165C5.71669 11.3332 5.90835 10.9415 6.11669 10.7415L9.25835 7.59984C9.30835 7.74984 9.37502 7.89984 9.45002 8.0665C9.52502 8.2165 9.60002 8.3665 9.68335 8.50817C9.75002 8.62484 9.82502 8.7415 9.89169 8.82484C9.97502 8.94984 10.0584 9.05817 10.1167 9.1165C10.15 9.1665 10.1834 9.19984 10.1917 9.2165C10.375 9.42484 10.5667 9.62484 10.75 9.77484C10.8 9.82484 10.8334 9.84984 10.8417 9.85817C10.95 9.9415 11.05 10.0332 11.15 10.0915C11.2584 10.1748 11.375 10.2498 11.4917 10.3165C11.6334 10.3998 11.7834 10.4832 11.9417 10.5582C12.1 10.6332 12.25 10.6915 12.4 10.7415L9.25835 13.8832ZM13.7917 9.35817L13.1417 10.0082C13.1 10.0498 13.0417 10.0748 12.9834 10.0748C12.9667 10.0748 12.9334 10.0748 12.9167 10.0665C11.4834 9.65817 10.3417 8.5165 9.93335 7.08317C9.90835 7.00817 9.93335 6.92484 9.99169 6.8665L10.65 6.20817C11.725 5.13317 12.7417 5.15817 13.7917 6.20817C14.325 6.7415 14.5917 7.25817 14.5834 7.7915C14.5834 8.3165 14.325 8.82484 13.7917 9.35817Z" fill="#3D3D3D"/>
</svg>
