<svg width="20" height="20" viewBox="0 0 20 20" fill="none" xmlns="http://www.w3.org/2000/svg">
<path d="M9.99998 1.6665C7.69998 1.6665 5.83331 3.53317 5.83331 5.83317C5.83331 8.13317 7.69998 9.99984 9.99998 9.99984C12.3 9.99984 14.1666 8.13317 14.1666 5.83317C14.1666 3.53317 12.3 1.6665 9.99998 1.6665ZM11.8083 5.42484L9.55831 7.67484C9.47498 7.75817 9.29998 7.8415 9.18331 7.8665L8.32498 7.98317C8.00831 8.02484 7.79165 7.80817 7.84165 7.49984L7.96665 6.6415C7.98331 6.52484 8.06665 6.34984 8.15831 6.2665L10.4083 4.0165C10.7916 3.63317 11.25 3.44984 11.8166 4.0165C12.375 4.5915 12.1916 5.0415 11.8083 5.42484Z" fill="#3D3D3D"/>
<path d="M9.99999 11.6665C5.82499 11.6665 2.42499 14.4665 2.42499 17.9165C2.42499 18.1498 2.60832 18.3332 2.84165 18.3332H17.1583C17.3917 18.3332 17.575 18.1498 17.575 17.9165C17.575 14.4665 14.175 11.6665 9.99999 11.6665Z" fill="#3D3D3D"/>
</svg>
