<svg width="20" height="20" viewBox="0 0 20 20" fill="none" xmlns="http://www.w3.org/2000/svg">
<path d="M17.0833 13.3333V15.4167C17.0833 17.025 15.775 18.3333 14.1667 18.3333H5.83332C4.22499 18.3333 2.91666 17.025 2.91666 15.4167V14.875C2.91666 13.5667 3.98332 12.5 5.29166 12.5H16.25C16.7083 12.5 17.0833 12.875 17.0833 13.3333Z" fill="#666A74"/>
<path d="M12.9167 1.66663H7.08332C3.74999 1.66663 2.91666 2.49996 2.91666 5.83329V12.15C3.54999 11.5916 4.38332 11.25 5.29166 11.25H16.25C16.7083 11.25 17.0833 10.875 17.0833 10.4166V5.83329C17.0833 2.49996 16.25 1.66663 12.9167 1.66663ZM10.8333 8.95829H6.66666C6.32499 8.95829 6.04166 8.67496 6.04166 8.33329C6.04166 7.99163 6.32499 7.70829 6.66666 7.70829H10.8333C11.175 7.70829 11.4583 7.99163 11.4583 8.33329C11.4583 8.67496 11.175 8.95829 10.8333 8.95829ZM13.3333 6.04163H6.66666C6.32499 6.04163 6.04166 5.75829 6.04166 5.41663C6.04166 5.07496 6.32499 4.79163 6.66666 4.79163H13.3333C13.675 4.79163 13.9583 5.07496 13.9583 5.41663C13.9583 5.75829 13.675 6.04163 13.3333 6.04163Z" fill="#666A74"/>
</svg>
