<svg width="20" height="20" viewBox="0 0 20 20" fill="none" xmlns="http://www.w3.org/2000/svg">
<path d="M14.6667 4.42498L9.95834 1.89165C9.45834 1.62498 8.86667 1.62498 8.36667 1.89165L3.66667 4.42498C3.325 4.61665 3.10834 4.98332 3.10834 5.38332C3.10834 5.79165 3.31667 6.15832 3.66667 6.34165L8.375 8.87498C8.625 9.00832 8.9 9.07498 9.16667 9.07498C9.43334 9.07498 9.71667 9.00832 9.95834 8.87498L14.6667 6.34165C15.0083 6.15832 15.225 5.79165 15.225 5.38332C15.225 4.98332 15.0083 4.61665 14.6667 4.42498Z" fill="#666A74"/>
<path d="M7.59999 9.75829L3.22499 7.57495C2.88332 7.39995 2.49999 7.42495 2.17499 7.61662C1.85832 7.81662 1.66666 8.15829 1.66666 8.53329V12.6666C1.66666 13.3833 2.06666 14.025 2.70832 14.35L7.08332 16.5333C7.23332 16.6083 7.39999 16.65 7.56666 16.65C7.75832 16.65 7.95832 16.5916 8.13332 16.4916C8.44999 16.2916 8.64166 15.95 8.64166 15.575V11.4416C8.63332 10.725 8.23332 10.0833 7.59999 9.75829Z" fill="#666A74"/>
<path d="M16.6666 8.53329V10.5833C16.2666 10.4666 15.8416 10.4166 15.4166 10.4166C14.2833 10.4166 13.175 10.8083 12.3 11.5083C11.1 12.45 10.4166 13.875 10.4166 15.4166C10.4166 15.825 10.4666 16.2333 10.575 16.625C10.45 16.6083 10.325 16.5583 10.2083 16.4833C9.89165 16.2916 9.69998 15.95 9.69998 15.575V11.4416C9.69998 10.725 10.1 10.0833 10.7333 9.75829L15.1083 7.57495C15.45 7.39995 15.8333 7.42495 16.1583 7.61662C16.475 7.81662 16.6666 8.15829 16.6666 8.53329Z" fill="#666A74"/>
<path d="M18.8167 17.9167L18.1167 17.2167C18.4833 16.6667 18.7 16 18.7 15.2917C18.7 13.35 17.125 11.775 15.1833 11.775C13.2417 11.775 11.6667 13.35 11.6667 15.2917C11.6667 17.2334 13.2417 18.8084 15.1833 18.8084C15.8917 18.8084 16.5583 18.5917 17.1083 18.225L17.8083 18.925C17.95 19.0667 18.125 19.1334 18.3083 19.1334C18.4917 19.1334 18.675 19.0667 18.8083 18.925C19.0917 18.6417 19.0917 18.1917 18.8167 17.9167Z" fill="#666A74"/>
</svg>
