<svg width="20" height="20" viewBox="0 0 20 20" fill="none" xmlns="http://www.w3.org/2000/svg">
<path d="M14.6667 4.42498L9.95834 1.89165C9.45834 1.62498 8.86667 1.62498 8.36667 1.89165L3.66667 4.42498C3.325 4.61665 3.10834 4.98332 3.10834 5.38332C3.10834 5.79165 3.31667 6.15832 3.66667 6.34165L8.375 8.87498C8.625 9.00832 8.9 9.07498 9.16667 9.07498C9.43334 9.07498 9.71667 9.00832 9.95834 8.87498L14.6667 6.34165C15.0083 6.15832 15.225 5.79165 15.225 5.38332C15.225 4.98332 15.0083 4.61665 14.6667 4.42498Z" fill="#666A74"/>
<path d="M7.59999 9.75829L3.22499 7.57495C2.88332 7.39995 2.49999 7.42495 2.17499 7.61662C1.85832 7.81662 1.66666 8.15829 1.66666 8.53329V12.6666C1.66666 13.3833 2.06666 14.025 2.70832 14.35L7.08332 16.5333C7.23332 16.6083 7.39999 16.65 7.56666 16.65C7.75832 16.65 7.95832 16.5916 8.13332 16.4916C8.44999 16.2916 8.64166 15.95 8.64166 15.575V11.4416C8.63332 10.725 8.23332 10.0833 7.59999 9.75829Z" fill="#666A74"/>
<path d="M16.6666 8.53329V10.5833C16.2666 10.4666 15.8416 10.4166 15.4166 10.4166C14.2833 10.4166 13.175 10.8083 12.3 11.5083C11.1 12.45 10.4166 13.875 10.4166 15.4166C10.4166 15.825 10.4666 16.2333 10.575 16.625C10.45 16.6083 10.325 16.5583 10.2083 16.4833C9.89165 16.2916 9.69998 15.95 9.69998 15.575V11.4416C9.69998 10.725 10.1 10.0833 10.7333 9.75829L15.1083 7.57495C15.45 7.39995 15.8333 7.42495 16.1583 7.61662C16.475 7.81662 16.6666 8.15829 16.6666 8.53329Z" fill="#666A74"/>
<path d="M18.3167 13.0416C17.6333 12.2 16.5917 11.6666 15.4167 11.6666C14.5333 11.6666 13.7167 11.975 13.075 12.4916C12.2083 13.175 11.6667 14.2333 11.6667 15.4166C11.6667 16.5916 12.2 17.6333 13.0417 18.3166C13.6833 18.85 14.5167 19.1666 15.4167 19.1666C16.3667 19.1666 17.225 18.8083 17.8917 18.2333C18.6667 17.5416 19.1667 16.5416 19.1667 15.4166C19.1667 14.5166 18.85 13.6833 18.3167 13.0416ZM16.275 15.65C16.275 15.8666 16.1583 16.075 15.975 16.1833L14.8 16.8833C14.7 16.9416 14.5917 16.975 14.475 16.975C14.2667 16.975 14.0583 16.8666 13.9417 16.675C13.7667 16.375 13.8583 15.9916 14.1583 15.8166L15.025 15.3V14.25C15.025 13.9083 15.3083 13.625 15.65 13.625C15.9917 13.625 16.275 13.9083 16.275 14.25V15.65Z" fill="#666A74"/>
</svg>
