<svg width="20" height="20" viewBox="0 0 20 20" fill="none" xmlns="http://www.w3.org/2000/svg">
<path d="M14.6667 4.42498L9.95834 1.89165C9.45834 1.62498 8.86667 1.62498 8.36667 1.89165L3.66667 4.42498C3.325 4.61665 3.10834 4.98332 3.10834 5.38332C3.10834 5.79165 3.31667 6.15832 3.66667 6.34165L8.375 8.87498C8.625 9.00832 8.9 9.07498 9.16667 9.07498C9.43334 9.07498 9.71667 9.00832 9.95834 8.87498L14.6667 6.34165C15.0083 6.15832 15.225 5.79165 15.225 5.38332C15.225 4.98332 15.0083 4.61665 14.6667 4.42498Z" fill="#666A74"/>
<path d="M7.6 9.75829L3.225 7.57495C2.88334 7.39995 2.5 7.42495 2.175 7.61662C1.85834 7.81662 1.66667 8.15829 1.66667 8.53329V12.6666C1.66667 13.3833 2.06667 14.025 2.70834 14.35L7.08334 16.5333C7.23334 16.6083 7.4 16.65 7.56667 16.65C7.75834 16.65 7.95834 16.5916 8.13334 16.4916C8.45001 16.2916 8.64167 15.95 8.64167 15.575V11.4416C8.63334 10.725 8.23334 10.0833 7.6 9.75829Z" fill="#666A74"/>
<path d="M16.6667 8.53329V10.5833C16.2667 10.4666 15.8417 10.4166 15.4167 10.4166C14.2833 10.4166 13.175 10.8083 12.3 11.5083C11.1 12.45 10.4167 13.875 10.4167 15.4166C10.4167 15.825 10.4667 16.2333 10.575 16.625C10.45 16.6083 10.325 16.5583 10.2083 16.4833C9.89168 16.2916 9.70001 15.95 9.70001 15.575V11.4416C9.70001 10.725 10.1 10.0833 10.7333 9.75829L15.1083 7.57495C15.45 7.39995 15.8333 7.42495 16.1583 7.61662C16.475 7.81662 16.6667 8.15829 16.6667 8.53329Z" fill="#666A74"/>
<path d="M18.3333 13.0833C18.3333 13.075 18.325 13.0666 18.3167 13.0583C18.2833 13.0083 18.2417 12.9583 18.2 12.9166C18.1917 12.9083 18.1833 12.8916 18.175 12.8833C17.5 12.1333 16.5083 11.6666 15.4167 11.6666C14.3667 11.6666 13.4083 12.1 12.725 12.8C12.0667 13.475 11.6667 14.4 11.6667 15.4166C11.6667 16.1166 11.8667 16.7833 12.2083 17.35C12.3917 17.6583 12.625 17.9416 12.8917 18.175C12.9083 18.1833 12.9167 18.1916 12.925 18.2C12.9667 18.2416 13.0083 18.275 13.0583 18.3166C13.0583 18.3166 13.0583 18.3166 13.0667 18.3166C13.075 18.325 13.0833 18.3333 13.0917 18.3333C13.7167 18.8583 14.525 19.1666 15.4167 19.1666C16.7833 19.1666 17.975 18.4333 18.625 17.35C18.8167 17.025 18.9667 16.6666 19.0583 16.2916C19.1333 16.0083 19.1667 15.7166 19.1667 15.4166C19.1667 14.5333 18.8583 13.7166 18.3333 13.0833ZM16.8167 16.025H16.0417V16.8333C16.0417 17.175 15.7583 17.4583 15.4167 17.4583C15.075 17.4583 14.7917 17.175 14.7917 16.8333V16.025H14.0167C13.675 16.025 13.3917 15.7416 13.3917 15.4C13.3917 15.0583 13.675 14.775 14.0167 14.775H14.7917V14.0333C14.7917 13.6916 15.075 13.4083 15.4167 13.4083C15.7583 13.4083 16.0417 13.6916 16.0417 14.0333V14.775H16.8167C17.1583 14.775 17.4417 15.0583 17.4417 15.4C17.4417 15.7416 17.1667 16.025 16.8167 16.025Z" fill="#666A74"/>
</svg>
