<svg width="30" height="30" viewBox="0 0 30 30" fill="none" xmlns="http://www.w3.org/2000/svg">
<path d="M20.9375 4.45V2.5C20.9375 1.9875 20.5125 1.5625 20 1.5625C19.4875 1.5625 19.0625 1.9875 19.0625 2.5V4.375H10.9375V2.5C10.9375 1.9875 10.5125 1.5625 9.99998 1.5625C9.48748 1.5625 9.06248 1.9875 9.06248 2.5V4.45C5.68748 4.7625 4.04998 6.775 3.79998 9.7625C3.77498 10.125 4.07498 10.425 4.42498 10.425H25.575C25.9375 10.425 26.2375 10.1125 26.2 9.7625C25.95 6.775 24.3125 4.7625 20.9375 4.45Z" fill="#708D81"/>
<path d="M25 12.2998H5C4.3125 12.2998 3.75 12.8623 3.75 13.5498V21.2498C3.75 24.9998 5.625 27.4998 10 27.4998H20C24.375 27.4998 26.25 24.9998 26.25 21.2498V13.5498C26.25 12.8623 25.6875 12.2998 25 12.2998ZM11.5125 22.7623C11.45 22.8123 11.3875 22.8748 11.325 22.9123C11.25 22.9623 11.175 22.9998 11.1 23.0248C11.025 23.0623 10.95 23.0873 10.875 23.0998C10.7875 23.1123 10.7125 23.1248 10.625 23.1248C10.4625 23.1248 10.3 23.0873 10.15 23.0248C9.9875 22.9623 9.8625 22.8748 9.7375 22.7623C9.5125 22.5248 9.375 22.1998 9.375 21.8748C9.375 21.5498 9.5125 21.2248 9.7375 20.9873C9.8625 20.8748 9.9875 20.7873 10.15 20.7248C10.375 20.6248 10.625 20.5998 10.875 20.6498C10.95 20.6623 11.025 20.6873 11.1 20.7248C11.175 20.7498 11.25 20.7873 11.325 20.8373C11.3875 20.8873 11.45 20.9373 11.5125 20.9873C11.7375 21.2248 11.875 21.5498 11.875 21.8748C11.875 22.1998 11.7375 22.5248 11.5125 22.7623ZM11.5125 18.3873C11.275 18.6123 10.95 18.7498 10.625 18.7498C10.3 18.7498 9.975 18.6123 9.7375 18.3873C9.5125 18.1498 9.375 17.8248 9.375 17.4998C9.375 17.1748 9.5125 16.8498 9.7375 16.6123C10.0875 16.2623 10.6375 16.1498 11.1 16.3498C11.2625 16.4123 11.4 16.4998 11.5125 16.6123C11.7375 16.8498 11.875 17.1748 11.875 17.4998C11.875 17.8248 11.7375 18.1498 11.5125 18.3873ZM15.8875 22.7623C15.65 22.9873 15.325 23.1248 15 23.1248C14.675 23.1248 14.35 22.9873 14.1125 22.7623C13.8875 22.5248 13.75 22.1998 13.75 21.8748C13.75 21.5498 13.8875 21.2248 14.1125 20.9873C14.575 20.5248 15.425 20.5248 15.8875 20.9873C16.1125 21.2248 16.25 21.5498 16.25 21.8748C16.25 22.1998 16.1125 22.5248 15.8875 22.7623ZM15.8875 18.3873C15.825 18.4373 15.7625 18.4873 15.7 18.5373C15.625 18.5873 15.55 18.6248 15.475 18.6498C15.4 18.6873 15.325 18.7123 15.25 18.7248C15.1625 18.7373 15.0875 18.7498 15 18.7498C14.675 18.7498 14.35 18.6123 14.1125 18.3873C13.8875 18.1498 13.75 17.8248 13.75 17.4998C13.75 17.1748 13.8875 16.8498 14.1125 16.6123C14.225 16.4998 14.3625 16.4123 14.525 16.3498C14.9875 16.1498 15.5375 16.2623 15.8875 16.6123C16.1125 16.8498 16.25 17.1748 16.25 17.4998C16.25 17.8248 16.1125 18.1498 15.8875 18.3873ZM20.2625 22.7623C20.025 22.9873 19.7 23.1248 19.375 23.1248C19.05 23.1248 18.725 22.9873 18.4875 22.7623C18.2625 22.5248 18.125 22.1998 18.125 21.8748C18.125 21.5498 18.2625 21.2248 18.4875 20.9873C18.95 20.5248 19.8 20.5248 20.2625 20.9873C20.4875 21.2248 20.625 21.5498 20.625 21.8748C20.625 22.1998 20.4875 22.5248 20.2625 22.7623ZM20.2625 18.3873C20.2 18.4373 20.1375 18.4873 20.075 18.5373C20 18.5873 19.925 18.6248 19.85 18.6498C19.775 18.6873 19.7 18.7123 19.625 18.7248C19.5375 18.7373 19.45 18.7498 19.375 18.7498C19.05 18.7498 18.725 18.6123 18.4875 18.3873C18.2625 18.1498 18.125 17.8248 18.125 17.4998C18.125 17.1748 18.2625 16.8498 18.4875 16.6123C18.6125 16.4998 18.7375 16.4123 18.9 16.3498C19.125 16.2498 19.375 16.2248 19.625 16.2748C19.7 16.2873 19.775 16.3123 19.85 16.3498C19.925 16.3748 20 16.4123 20.075 16.4623C20.1375 16.5123 20.2 16.5623 20.2625 16.6123C20.4875 16.8498 20.625 17.1748 20.625 17.4998C20.625 17.8248 20.4875 18.1498 20.2625 18.3873Z" fill="#708D81"/>
</svg>
