<svg width="20" height="20" viewBox="0 0 20 20" fill="none" xmlns="http://www.w3.org/2000/svg">
<path d="M5.63333 18.3332H14.3667C16.6667 18.3332 17.5833 16.9248 17.6917 15.2082L18.125 8.32484C18.2417 6.52484 16.8083 4.99984 15 4.99984C14.4917 4.99984 14.025 4.70817 13.7917 4.25817L13.1917 3.04984C12.8083 2.2915 11.8083 1.6665 10.9583 1.6665H9.05C8.19166 1.6665 7.19166 2.2915 6.80833 3.04984L6.20833 4.25817C5.975 4.70817 5.50833 4.99984 5 4.99984C3.19166 4.99984 1.75833 6.52484 1.875 8.32484L2.30833 15.2082C2.40833 16.9248 3.33333 18.3332 5.63333 18.3332Z" stroke="white" stroke-width="1.5" stroke-linecap="round" stroke-linejoin="round"/>
<path d="M8.75 6.6665H11.25" stroke="white" stroke-width="1.5" stroke-linecap="round" stroke-linejoin="round"/>
<path d="M10 15.0002C11.4917 15.0002 12.7084 13.7835 12.7084 12.2918C12.7084 10.8002 11.4917 9.5835 10 9.5835C8.50835 9.5835 7.29169 10.8002 7.29169 12.2918C7.29169 13.7835 8.50835 15.0002 10 15.0002Z" stroke="white" stroke-width="1.5" stroke-linecap="round" stroke-linejoin="round"/>
</svg>
