<svg width="18" height="20" viewBox="0 0 18 20" fill="none" xmlns="http://www.w3.org/2000/svg">
<path d="M11.2028 17.7177C10.8816 18.4258 10.6692 19.1942 10.5879 20L17.3852 18.5635C17.7064 17.8556 17.9186 17.0871 18.0001 16.2812L11.2028 17.7177Z" fill="#001427"/>
<path d="M17.385 14.2599C17.7062 13.552 17.9186 12.7835 17.9999 11.9777L12.705 13.0972V10.945L17.3849 9.95632C17.7061 9.24842 17.9184 8.47987 17.9997 7.67406L12.7048 8.79267V1.0527C11.8935 1.50559 11.173 2.10843 10.5872 2.81951V9.2403L8.46963 9.68777V0C7.65829 0.452726 6.93775 1.05572 6.35202 1.76681V10.1351L1.61387 11.1361C1.29266 11.844 1.08018 12.6125 0.998678 13.4183L6.35202 12.2873V14.9976L0.614867 16.2096C0.293663 16.9175 0.0813418 17.6861 0 18.4919L6.0052 17.2232C6.49405 17.1221 6.91421 16.8348 7.18738 16.4394L8.28869 14.8161C8.40302 14.6482 8.46963 14.4454 8.46963 14.2273V11.8398L10.5872 11.3923V15.6967L17.385 14.2599Z" fill="#001427"/>
</svg>
