<svg width="20" height="20" viewBox="0 0 20 20" fill="none" xmlns="http://www.w3.org/2000/svg">
<path d="M17.5 18.3333H2.5C2.15833 18.3333 1.875 18.0499 1.875 17.7083C1.875 17.3666 2.15833 17.0833 2.5 17.0833H17.5C17.8417 17.0833 18.125 17.3666 18.125 17.7083C18.125 18.0499 17.8417 18.3333 17.5 18.3333Z" fill="#666A74"/>
<path d="M15.85 2.90005C14.2333 1.28338 12.65 1.24172 10.9917 2.90005L9.98333 3.90838C9.9 3.99172 9.86666 4.12505 9.9 4.24172C10.5333 6.45005 12.3 8.21672 14.5083 8.85005C14.5417 8.85838 14.575 8.86672 14.6083 8.86672C14.7 8.86672 14.7833 8.83338 14.85 8.76672L15.85 7.75838C16.675 6.94172 17.075 6.15005 17.075 5.35005C17.0833 4.52505 16.6833 3.72505 15.85 2.90005Z" fill="#666A74"/>
<path d="M13.0083 9.60841C12.7667 9.49175 12.5333 9.37508 12.3083 9.24175C12.125 9.13341 11.95 9.01675 11.775 8.89175C11.6333 8.80008 11.4667 8.66675 11.3083 8.53341C11.2917 8.52508 11.2333 8.47508 11.1667 8.40841C10.8917 8.17508 10.5833 7.87508 10.3083 7.54175C10.2833 7.52508 10.2417 7.46675 10.1833 7.39175C10.1 7.29175 9.95833 7.12508 9.83333 6.93341C9.73333 6.80841 9.61666 6.62508 9.50833 6.44175C9.375 6.21675 9.25833 5.99175 9.14166 5.75841C8.9887 5.43063 8.55849 5.33326 8.30271 5.58903L3.61666 10.2751C3.50833 10.3834 3.40833 10.5917 3.38333 10.7334L2.93333 13.9251C2.85 14.4917 3.00833 15.0251 3.35833 15.3834C3.65833 15.6751 4.075 15.8334 4.525 15.8334C4.625 15.8334 4.725 15.8251 4.825 15.8084L8.025 15.3584C8.175 15.3334 8.38333 15.2334 8.48333 15.1251L13.1771 10.4313C13.4278 10.1806 13.3336 9.74936 13.0083 9.60841Z" fill="#666A74"/>
</svg>
