<svg width="20" height="20" viewBox="0 0 20 20" fill="none" xmlns="http://www.w3.org/2000/svg">
<path d="M13.4916 1.66675H6.50829C3.47496 1.66675 1.66663 3.47508 1.66663 6.50841V13.4834C1.66663 16.5251 3.47496 18.3334 6.50829 18.3334H13.4833C16.5166 18.3334 18.325 16.5251 18.325 13.4917V6.50841C18.3333 3.47508 16.525 1.66675 13.4916 1.66675ZM5.39163 6.43341C5.63329 6.19175 6.03329 6.19175 6.27496 6.43341C6.86663 7.02508 7.83329 7.02508 8.42496 6.43341C8.66663 6.19175 9.06663 6.19175 9.30829 6.43341C9.54996 6.67508 9.54996 7.07508 9.30829 7.31675C8.76663 7.85841 8.05829 8.12508 7.34996 8.12508C6.64163 8.12508 5.93329 7.85841 5.39163 7.31675C5.14996 7.06675 5.14996 6.67508 5.39163 6.43341ZM9.99996 15.6501C7.75829 15.6501 5.93329 13.8251 5.93329 11.5834C5.93329 11.0001 6.40829 10.5167 6.99163 10.5167H12.9916C13.575 10.5167 14.05 10.9917 14.05 11.5834C14.0666 13.8251 12.2416 15.6501 9.99996 15.6501ZM14.6083 7.31675C14.0666 7.85841 13.3583 8.12508 12.65 8.12508C11.9416 8.12508 11.2333 7.85841 10.6916 7.31675C10.45 7.07508 10.45 6.67508 10.6916 6.43341C10.9333 6.19175 11.3333 6.19175 11.575 6.43341C12.1666 7.02508 13.1333 7.02508 13.725 6.43341C13.9666 6.19175 14.3666 6.19175 14.6083 6.43341C14.85 6.67508 14.85 7.06675 14.6083 7.31675Z" fill="#292D32"/>
</svg>
