<svg width="24" height="24" viewBox="0 0 24 24" fill="none" xmlns="http://www.w3.org/2000/svg">
<path d="M21.56 10.74L20.21 9.15996C19.96 8.85996 19.75 8.29996 19.75 7.89996V6.19996C19.75 5.13996 18.88 4.26996 17.82 4.26996H16.12C15.72 4.26996 15.15 4.05996 14.85 3.80996L13.27 2.45996C12.58 1.86996 11.45 1.86996 10.76 2.45996L9.16 3.80996C8.86 4.05996 8.3 4.26996 7.9 4.26996H6.17C5.11 4.26996 4.24 5.13996 4.24 6.19996V7.89996C4.24 8.28996 4.04 8.84996 3.79 9.14996L2.44 10.74C1.86 11.44 1.86 12.56 2.44 13.24L3.79 14.83C4.04 15.12 4.24 15.69 4.24 16.08V17.79C4.24 18.85 5.11 19.72 6.17 19.72H7.91C8.3 19.72 8.87 19.93 9.17 20.18L10.75 21.53C11.44 22.12 12.57 22.12 13.26 21.53L14.84 20.18C15.14 19.93 15.7 19.72 16.1 19.72H17.8C18.86 19.72 19.73 18.85 19.73 17.79V16.09C19.73 15.69 19.94 15.13 20.19 14.83L21.54 13.25C22.15 12.57 22.15 11.44 21.56 10.74ZM11.25 8.12996C11.25 7.71996 11.59 7.37996 12 7.37996C12.41 7.37996 12.75 7.71996 12.75 8.12996V12.96C12.75 13.37 12.41 13.71 12 13.71C11.59 13.71 11.25 13.37 11.25 12.96V8.12996ZM12 16.87C11.45 16.87 11 16.42 11 15.87C11 15.32 11.44 14.87 12 14.87C12.55 14.87 13 15.32 13 15.87C13 16.42 12.56 16.87 12 16.87Z" fill="#292D32"/>
</svg>
