<svg width="160" height="98" viewBox="0 0 160 98" fill="none" xmlns="http://www.w3.org/2000/svg">
<path d="M31.1975 95.0599L25.101 98C24.6156 94.6274 23.6333 86.1774 25.8556 81.781C28.1631 77.2121 34.4896 74.6378 37.9911 74.6378C38.8262 74.6378 39.6291 74.7022 40.432 74.7988L34.0433 68.4424C32.1799 66.549 31.2504 64.1081 31.2504 61.6672C31.2504 60.3835 31.5081 59.0676 32.0533 57.846L34.7496 57.1075V57.2685C34.7496 58.9387 36.1944 61.5384 38.5708 63.9149L48.3965 73.7383C49.0384 74.3157 49.7125 74.6378 50.8996 74.6378V76.2436L45.1527 79.5495C42.6796 77.0465 40.4734 75.5718 37.9934 76.2436C32.1753 77.8149 30.3394 85.0455 31.0871 91.1673C31.1423 91.6136 31.1998 94.6435 31.1998 95.0599H31.1975Z" fill="#001427"/>
<path d="M63.8034 78.137C62.0688 76.9177 60.111 76.2436 58.0244 76.2436H49.6757V74.6378H58.0244C58.8273 74.6378 59.6624 74.7022 60.4331 74.7988L54.0767 68.4424C52.2132 66.549 51.2838 64.1081 51.2838 61.6672C51.2838 60.3835 51.5414 59.0676 52.0867 57.846L54.7829 57.1075V57.2685C54.7829 60.1258 57.6724 63.0153 61.397 66.74C62.3587 66.74 63.1317 66.1625 63.1317 62.3091V48.0548L69.5203 49.7572V60.3835C69.5203 64.3014 66.6308 67.5751 62.874 68.2169L69.5203 74.831L63.8057 78.137H63.8034Z" fill="#001427"/>
<path d="M78.2809 76.2436L71.9244 74.5412V48.0525L78.2809 49.7549V76.2436Z" fill="#001427"/>
<path d="M96.6141 82.087C89.5513 82.087 83.869 76.4046 83.869 69.3419C83.869 66.8043 84.3498 64.3657 85.2815 62.1181L92.0889 60.319C90.9018 62.9532 90.2576 66.0337 90.2576 69.3419C90.2576 75.5074 93.0827 80.5157 96.6141 80.5157C97.4814 80.5157 98.1877 79.584 98.1877 76.0848V58.8444L104.576 60.5468V74.127C104.576 78.5257 101.013 82.0893 96.6141 82.0893V82.087Z" fill="#001427"/>
<path d="M107.882 82.087L104.542 81.2197C105.922 80.3846 106.983 77.2374 106.983 73.4507V58.8421L113.371 60.5445V73.4507C113.371 77.2719 111.124 80.5778 107.882 82.087Z" fill="#001427"/>
<path d="M122.104 76.2436L115.748 74.5412V48.0525L122.104 49.7549V74.6378H123.71V76.2436H122.104Z" fill="#001427"/>
<path d="M136.839 68.1847H140.371C141.88 68.1847 142.009 66.0337 142.009 65.0375C142.009 60.6388 145.54 57.1075 149.939 57.1075C155.205 57.1075 159.507 61.3773 159.507 66.6755C159.507 71.9737 155.205 76.2436 149.939 76.2436C146.021 76.2436 142.747 73.3541 142.138 69.6939C141.625 69.8227 140.983 69.8227 140.371 69.8227H138.477L143.486 74.831L137.771 78.1369C136.037 76.9176 134.079 76.2436 131.992 76.2436H123.643V74.6378H131.992C132.827 74.6378 133.63 74.7022 134.431 74.7988L128.042 68.4424C126.179 66.549 125.249 64.1081 125.249 61.6672C125.249 60.3835 125.507 59.0676 126.052 57.846L128.748 57.1075V57.2685C128.748 58.9387 130.161 61.5384 132.57 63.9149L136.839 68.1847ZM149.939 58.7455C149.039 58.7455 148.301 59.645 148.301 63.1442V70.2069C148.301 73.7061 149.039 74.6056 149.939 74.6056C151.706 74.6056 153.086 71.0742 153.086 66.6755C153.086 62.2768 151.706 58.7455 149.939 58.7455Z" fill="#001427"/>
<path d="M32.5963 53.5439C32.5963 52.389 33.3992 51.5861 34.5541 51.5861C35.7089 51.5861 36.4819 52.389 36.4819 53.5439C36.4819 54.6988 35.679 55.4695 34.5541 55.4695C33.4291 55.4695 32.5963 54.6666 32.5963 53.5439ZM34.8761 54.0247V53.0286C34.8761 52.2257 34.7151 51.9059 34.5541 51.9059C34.393 51.9059 34.232 52.0669 34.232 53.0286V54.0247C34.232 54.8276 34.393 55.1497 34.5541 55.1497C34.7151 55.1497 34.8761 54.9887 34.8761 54.0247Z" fill="#708D81"/>
<path d="M57.4147 54.0569L57.7368 55.0209H51.7001L51.3804 54.0569H57.4171H57.4147Z" fill="#708D81"/>
<path d="M64.091 45.0364C64.091 43.8815 64.8939 43.0786 66.0488 43.0786C67.2037 43.0786 67.9743 43.8815 67.9743 45.0364C67.9743 46.1913 67.1714 46.962 66.0488 46.962C64.9261 46.962 64.091 46.1591 64.091 45.0364ZM66.3708 45.5172V44.5211C66.3708 43.7182 66.2098 43.3984 66.0488 43.3984C65.8877 43.3984 65.7267 43.5595 65.7267 44.5211V45.5172C65.7267 46.3201 65.8877 46.6422 66.0488 46.6422C66.2098 46.6422 66.3708 46.4812 66.3708 45.5172Z" fill="#708D81"/>
<path d="M89.9033 58.5522H85.8267L85.5046 57.5883H88.1365C87.9754 57.2662 87.9754 56.9465 87.9754 56.6244C87.9754 55.4695 88.7783 54.6666 89.9033 54.6666C91.0283 54.6666 91.8611 55.4695 91.8611 56.6244C91.8611 57.7793 91.0582 58.5499 89.9033 58.5499V58.5522ZM90.2254 57.1075V56.1113C90.2254 55.3085 90.0644 54.9887 89.9033 54.9887C89.7423 54.9887 89.5812 55.1497 89.5812 56.1113V57.1075C89.5812 57.9104 89.7423 58.2325 89.9033 58.2325C90.0644 58.2325 90.2254 58.0714 90.2254 57.1075Z" fill="#708D81"/>
<path d="M111.894 84.3968L112.216 85.3607H106.18L105.858 84.3968H111.894Z" fill="#708D81"/>
<path d="M131.67 54.6022L131.992 55.5661H125.955L125.633 54.6022H131.67Z" fill="#708D81"/>
<path d="M152.858 53.705L153.18 54.6689H147.144L146.822 53.705H152.858Z" fill="#708D81"/>
<path d="M35.8355 80.9436L38.7503 77.9598H39.1391L42.1597 80.9436L39.2472 83.9274H38.8561L35.8355 80.9436Z" fill="#708D81"/>
<path d="M91.7116 53.8982L94.6241 50.9144H95.0152L98.0358 53.8982L95.121 56.882H94.7322L91.7116 53.8982Z" fill="#708D81"/>
<path d="M107.194 53.9212L110.109 50.9374H110.498L113.519 53.9212L110.606 56.9073H110.215L107.194 53.9212Z" fill="#708D81"/>
<path d="M131.502 58.5338L134.415 55.5477H134.806L137.826 58.5338L134.912 61.5177H134.523L131.502 58.5338Z" fill="#708D81"/>
<path d="M38.6491 95.4303V95.1979L39.4152 95.0093V89.1773L38.6491 88.968V88.7356H41.3177V88.968L40.4872 89.1773V91.7839H43.7655V89.1773L42.9465 88.968V88.7356H45.6037V88.968L44.8261 89.1773V95.0093L45.6037 95.1979V95.4303H42.9465V95.1979L43.7655 95.0093V92.1198H40.4872V95.0093L41.3177 95.1979V95.4303H38.6491Z" fill="#001427"/>
<path d="M49.8988 94.3904C49.8988 93.5829 50.4763 93.224 51.5368 92.9411L52.5353 92.6788V92.1106C52.5353 91.356 52.158 90.8936 51.6105 90.8936C51.3275 90.8936 51.0951 90.9787 50.9594 91.0937L50.918 92.1221C50.803 92.1543 50.6649 92.175 50.497 92.175C50.2025 92.175 50.0024 92.0162 50.0024 91.754C50.0024 91.2709 50.9364 90.5255 52.02 90.5255C53.1035 90.5255 53.4808 91.0201 53.4808 91.9955V94.77C53.4808 94.9909 53.5429 95.053 53.796 95.053H54.2998V95.2209C54.2998 95.2209 53.6902 95.5568 53.3129 95.5568C52.7768 95.5568 52.5882 95.2301 52.556 94.7585H52.5146C52.1373 95.1887 51.7784 95.5775 51.1181 95.5775C50.5407 95.5775 49.8988 95.2094 49.8988 94.3904ZM51.6335 94.938C52.0545 94.938 52.3581 94.6435 52.5353 94.4019V92.9526L51.5483 93.2885C51.0537 93.4449 50.8651 93.7302 50.8651 94.096C50.8651 94.5262 51.1181 94.9357 51.6335 94.9357V94.938Z" fill="#001427"/>
<path d="M57.7783 97.763C58.5973 97.3006 58.7445 96.7761 58.7652 95.2945V91.5331L58.1763 91.1972V91.05L59.6992 90.5255V95.1059C59.6992 95.9157 59.6463 96.546 59.3427 96.9555C58.9332 97.4916 58.4178 97.7331 57.8197 97.9333L57.7783 97.7653V97.763ZM58.5352 88.6666C58.5352 88.3307 58.8388 88.0247 59.1862 88.0247C59.5129 88.0247 59.8166 88.3284 59.8166 88.6666C59.8166 89.0048 59.5129 89.3062 59.1862 89.3062C58.8388 89.3062 58.5352 89.0025 58.5352 88.6666Z" fill="#001427"/>
<path d="M64.0289 97.763C64.8479 97.3006 64.9951 96.7761 65.0158 95.2945V91.5331L64.4269 91.1972V91.05L65.9499 90.5255V95.1059C65.9499 95.9157 65.897 96.546 65.5933 96.9555C65.1838 97.4916 64.6685 97.7331 64.0703 97.9333L64.0289 97.7653V97.763ZM64.7858 88.6666C64.7858 88.3307 65.0895 88.0247 65.4368 88.0247C65.7635 88.0247 66.0672 88.3284 66.0672 88.6666C66.0672 89.0048 65.7635 89.3062 65.4368 89.3062C65.0895 89.3062 64.7858 89.0025 64.7858 88.6666Z" fill="#001427"/>
<path d="M78.0945 95.5062L76.1506 89.1704L75.6559 88.9818V88.7402H78.0508V88.9726L77.2617 89.1727L78.7525 94.1627L80.0132 90.5692L79.5623 89.1727L78.879 88.9726V88.7402H81.4327V88.9933L80.6551 89.1727L82.231 94.0591L83.6711 89.2579L82.6198 88.9956V88.7425H84.6903V88.9749L84.1657 89.2165L82.1918 95.5108H81.6144L80.218 91.2018L78.6628 95.5108H78.0968L78.0945 95.5062Z" fill="#001427"/>
<path d="M88.1595 94.3904C88.1595 93.5829 88.737 93.224 89.7975 92.9411L90.796 92.6788V92.1106C90.796 91.356 90.4187 90.8936 89.8711 90.8936C89.5882 90.8936 89.3558 90.9787 89.2201 91.0937L89.1787 92.1221C89.0636 92.1543 88.9256 92.175 88.7577 92.175C88.4632 92.175 88.263 92.0162 88.263 91.754C88.263 91.2709 89.1971 90.5255 90.2806 90.5255C91.3642 90.5255 91.7415 91.0201 91.7415 91.9955V94.77C91.7415 94.9909 91.8036 95.053 92.0567 95.053H92.5605V95.2209C92.5605 95.2209 91.9508 95.5568 91.5736 95.5568C91.0375 95.5568 90.8489 95.2301 90.8167 94.7585H90.7753C90.398 95.1887 90.0391 95.5775 89.3788 95.5775C88.8014 95.5775 88.1595 95.2094 88.1595 94.3904ZM89.8941 94.938C90.3151 94.938 90.6188 94.6435 90.796 94.4019V92.9526L89.809 93.2885C89.3144 93.4449 89.1258 93.7302 89.1258 94.096C89.1258 94.5262 89.3788 94.9357 89.8941 94.9357V94.938Z" fill="#001427"/>
<path d="M96.4577 95.4303V95.2094L97.0765 95.0116V91.5331L96.437 91.1972V91.0615L97.8771 90.5255H97.93L97.9622 91.8276H98.0036L98.1187 91.6183C98.6225 90.6934 98.8963 90.514 99.3058 90.514C99.6094 90.514 99.851 90.6934 99.851 91.0178C99.851 91.2801 99.7153 91.4595 99.4737 91.6159L98.8019 91.3537C98.6041 91.4066 98.2245 91.7747 98.0243 92.2785V95.0116L98.8019 95.2094V95.4303H96.46H96.4577Z" fill="#001427"/>
<path d="M103.698 93.1504C103.698 91.6896 104.802 90.514 105.998 90.514C107.017 90.514 107.689 91.1328 107.825 92.4672H104.579C104.569 92.5408 104.569 92.6236 104.569 92.7179C104.569 94.0108 105.253 94.7976 106.26 94.7976C106.921 94.7976 107.489 94.3352 107.742 94.0845L107.901 94.211C107.565 94.7792 106.967 95.566 105.819 95.566C104.431 95.566 103.698 94.3582 103.698 93.1504ZM104.611 92.1635H106.734C106.619 91.333 106.304 90.8706 105.715 90.8706C105.158 90.8706 104.737 91.333 104.611 92.1635Z" fill="#001427"/>
<path d="M111.954 95.4303V95.2094L112.564 95.0116V88.9289L111.975 88.593V88.4458L113.509 87.9097V91.4503C113.73 91.2087 114.464 90.5255 115.221 90.5255C116.093 90.5255 116.544 90.9465 116.544 92.2164V95.0116L117.174 95.2209V95.4303H114.989V95.2094L115.587 95.0116V92.2164C115.555 91.6274 115.325 91.1972 114.662 91.1972C114.19 91.1972 113.664 91.586 113.507 91.7218V95.0116L114.138 95.2094V95.4303H111.952H111.954Z" fill="#001427"/>
<path d="M121.324 93.1619C121.324 91.7218 122.417 90.514 123.752 90.514C125.192 90.514 126.167 91.4595 126.167 92.9204C126.167 94.3812 125.104 95.589 123.752 95.589C122.196 95.589 121.324 94.4019 121.324 93.1619ZM122.364 92.7317C122.364 93.9188 122.859 95.2531 123.899 95.2531C124.656 95.2531 125.139 94.4226 125.139 93.3506C125.139 91.7747 124.456 90.8384 123.595 90.8384C122.735 90.8384 122.367 91.7517 122.367 92.7294L122.364 92.7317Z" fill="#001427"/>
<path d="M130.874 94.0016V91.2594L130.232 91.0178V90.8384L131.817 90.5853V93.79C131.817 94.5561 132.185 94.9127 132.784 94.9127C133.037 94.9127 133.257 94.8505 133.455 94.7332C133.644 94.6182 133.782 94.5331 133.876 94.4594V91.2548L133.14 91.0224V90.843L134.81 90.5807V94.8781L135.524 95.1312V95.3106L133.989 95.5729L133.895 94.6688C133.644 94.984 133.044 95.5936 132.277 95.5936C131.343 95.5936 130.869 94.9748 130.869 93.997L130.874 94.0016Z" fill="#001427"/>
<path d="M139.814 95.2531L139.752 93.7923H139.961L140.465 94.9794C140.633 95.1473 140.875 95.283 141.222 95.283C141.841 95.283 142.2 94.8528 142.2 94.3789C142.2 93.9694 142.011 93.7279 141.431 93.507L140.792 93.2563C140.214 93.0354 139.814 92.6581 139.814 91.9748C139.814 91.0822 140.665 90.514 141.673 90.514C142.168 90.514 142.566 90.6612 142.89 90.8407L142.881 92.1014H142.692L142.239 91.0822C142.071 90.9672 141.839 90.8315 141.544 90.8315C141.029 90.8315 140.714 91.2088 140.714 91.6206C140.714 92.0715 140.976 92.2808 141.512 92.4925L141.954 92.6719C142.793 93.0193 143.12 93.3667 143.12 93.9855C143.12 94.9426 142.174 95.6051 141.146 95.6051C140.599 95.6051 140.118 95.4165 139.812 95.2577L139.814 95.2531Z" fill="#001427"/>
<path d="M147.588 93.1504C147.588 91.6896 148.692 90.514 149.888 90.514C150.907 90.514 151.579 91.1328 151.715 92.4672H148.469C148.46 92.5408 148.46 92.6236 148.46 92.7179C148.46 94.0108 149.143 94.7976 150.151 94.7976C150.811 94.7976 151.379 94.3352 151.632 94.0845L151.791 94.211C151.455 94.7792 150.857 95.566 149.709 95.566C148.322 95.566 147.588 94.3582 147.588 93.1504ZM148.501 92.1635H150.624C150.509 91.333 150.194 90.8706 149.605 90.8706C149.049 90.8706 148.628 91.333 148.501 92.1635Z" fill="#001427"/>
<path d="M156.245 95.2531L156.183 93.7923H156.392L156.896 94.9794C157.064 95.1473 157.305 95.283 157.653 95.283C158.272 95.283 158.63 94.8528 158.63 94.3789C158.63 93.9694 158.442 93.7279 157.862 93.507L157.222 93.2563C156.645 93.0354 156.245 92.6581 156.245 91.9748C156.245 91.0822 157.096 90.514 158.104 90.514C158.598 90.514 158.996 90.6612 159.321 90.8407L159.311 92.1014H159.123L158.669 91.0822C158.502 90.9672 158.269 90.8315 157.975 90.8315C157.459 90.8315 157.144 91.2088 157.144 91.6206C157.144 92.0715 157.406 92.2808 157.943 92.4925L158.384 92.6719C159.224 93.0193 159.551 93.3667 159.551 93.9855C159.551 94.9426 158.605 95.6051 157.577 95.6051C157.029 95.6051 156.548 95.4165 156.242 95.2577L156.245 95.2531Z" fill="#001427"/>
<path d="M112.764 30.1817C121.582 27.8949 129.365 27.582 137.665 31.7806C145.966 35.9791 151.025 43.7366 152.973 52.718L146.967 52.6398C143.32 39.331 130.591 31.5574 117.045 35.374C113.926 36.2529 111.49 38.3533 108.503 39.3149C108.257 24.6005 97.9047 10.9306 83.6435 7.20594C63.5596 1.96296 43.9036 15.3775 41.4696 35.9561C47.8974 37.433 56.6073 39.0273 59.1494 46.0119C53.6143 44.7788 48.8314 42.1745 42.9949 41.7627C15.7838 39.844 -2.24341 74.3594 11.7923 97.9609C9.67811 97.6503 7.69502 97.1189 5.29783 96.4195C3.40677 95.8651 0.896855 83.8377 0.708209 82.2227C-2.04327 58.8904 12.2133 39.8256 35.2604 36.1493C40.0778 -7.85355 102.28 -12.9194 112.769 30.1817H112.764Z" fill="#708D81"/>
</svg>
