<svg width="20" height="20" viewBox="0 0 20 20" fill="none" xmlns="http://www.w3.org/2000/svg">
<path d="M7.62496 6.2417C7.15829 6.2417 6.79163 6.6167 6.79163 7.07503C6.79163 7.53337 7.16663 7.90837 7.62496 7.90837C8.08329 7.90837 8.45829 7.53337 8.45829 7.07503C8.45829 6.6167 8.08329 6.2417 7.62496 6.2417Z" fill="white"/>
<path d="M17.8833 4.19996C17.1833 2.57496 15.6416 1.66663 13.4916 1.66663H6.50829C3.83329 1.66663 1.66663 3.83329 1.66663 6.50829V13.4916C1.66663 15.6416 2.57496 17.1833 4.19996 17.8833C4.35829 17.95 4.54163 17.9083 4.65829 17.7916L17.7916 4.65829C17.9166 4.53329 17.9583 4.34996 17.8833 4.19996ZM8.77496 10.2C8.44996 10.5166 8.02496 10.6666 7.59996 10.6666C7.17496 10.6666 6.74996 10.5083 6.42496 10.2C5.57496 9.39996 4.64163 8.12496 4.99996 6.60829C5.31663 5.23329 6.53329 4.61663 7.59996 4.61663C8.66663 4.61663 9.88329 5.23329 10.2 6.61663C10.55 8.12496 9.61663 9.39996 8.77496 10.2Z" fill="white"/>
<path d="M16.225 17.1083C16.4083 17.2916 16.3833 17.5916 16.1583 17.7166C15.425 18.125 14.5333 18.3333 13.4916 18.3333H6.50829C6.26662 18.3333 6.16662 18.05 6.33329 17.8833L11.3666 12.85C11.5333 12.6833 11.7916 12.6833 11.9583 12.85L16.225 17.1083Z" fill="white"/>
<path d="M18.3333 6.50829V13.4916C18.3333 14.5333 18.125 15.4333 17.7167 16.1583C17.5917 16.3833 17.2917 16.4 17.1083 16.225L12.8417 11.9583C12.675 11.7916 12.675 11.5333 12.8417 11.3666L17.875 6.33329C18.05 6.16662 18.3333 6.26662 18.3333 6.50829Z" fill="white"/>
</svg>
