<svg width="20" height="20" viewBox="0 0 20 20" fill="none" xmlns="http://www.w3.org/2000/svg">
<path d="M7.5 1.66663C5.31666 1.66663 3.54166 3.44163 3.54166 5.62496C3.54166 7.76663 5.21666 9.49996 7.4 9.57496C7.46666 9.56663 7.53333 9.56663 7.58333 9.57496C7.6 9.57496 7.60833 9.57496 7.625 9.57496C7.63333 9.57496 7.63333 9.57496 7.64166 9.57496C9.775 9.49996 11.45 7.76663 11.4583 5.62496C11.4583 3.44163 9.68333 1.66663 7.5 1.66663Z" fill="#666A74"/>
<path d="M11.7333 11.7917C9.40833 10.2417 5.61666 10.2417 3.275 11.7917C2.21666 12.5 1.63333 13.4583 1.63333 14.4833C1.63333 15.5083 2.21666 16.4583 3.26666 17.1583C4.43333 17.9417 5.96666 18.3333 7.5 18.3333C9.03333 18.3333 10.5667 17.9417 11.7333 17.1583C12.7833 16.45 13.3667 15.5 13.3667 14.4667C13.3583 13.4417 12.7833 12.4917 11.7333 11.7917Z" fill="#666A74"/>
<path d="M16.6583 6.11671C16.7917 7.73338 15.6417 9.15004 14.05 9.34171C14.0417 9.34171 14.0417 9.34171 14.0333 9.34171H14.0083C13.9583 9.34171 13.9083 9.34171 13.8667 9.35838C13.0583 9.40004 12.3167 9.14171 11.7583 8.66671C12.6167 7.90004 13.1083 6.75004 13.0083 5.50004C12.95 4.82504 12.7167 4.20838 12.3667 3.68338C12.6833 3.52504 13.05 3.42504 13.425 3.39171C15.0583 3.25004 16.5167 4.46671 16.6583 6.11671Z" fill="#666A74"/>
<path d="M18.325 13.825C18.2583 14.6334 17.7417 15.3334 16.875 15.8084C16.0417 16.2667 14.9917 16.4834 13.95 16.4584C14.55 15.9167 14.9 15.2417 14.9667 14.525C15.05 13.4917 14.5583 12.5 13.575 11.7084C13.0167 11.2667 12.3667 10.9167 11.6583 10.6584C13.5 10.125 15.8167 10.4834 17.2417 11.6334C18.0083 12.25 18.4 13.025 18.325 13.825Z" fill="#666A74"/>
</svg>
