<svg width="20" height="20" viewBox="0 0 20 20" fill="none" xmlns="http://www.w3.org/2000/svg">
<path d="M10.5648 16.6309C10.7937 16.6842 10.8147 16.9841 10.5917 17.0584L9.27501 17.4917C5.96668 18.5584 4.22501 17.6667 3.15001 14.3584L2.08334 11.0667C1.01668 7.75839 1.90001 6.00839 5.20834 4.94172L5.47567 4.85319C5.87854 4.71978 6.27413 5.12514 6.16522 5.53531C6.13454 5.65086 6.10454 5.76966 6.07501 5.89172L5.25834 9.38339C4.34168 13.3084 5.68334 15.4751 9.60834 16.4084L10.5648 16.6309Z" fill="#666A74"/>
<path d="M14.3083 2.67505L12.9167 2.35005C10.1333 1.69171 8.47499 2.23338 7.49999 4.25005C7.24999 4.75838 7.04999 5.37505 6.88332 6.08338L6.06665 9.57505C5.24999 13.0584 6.32499 14.775 9.79999 15.6L11.2 15.9334C11.6833 16.05 12.1333 16.125 12.55 16.1584C15.15 16.4084 16.5333 15.1917 17.2333 12.1834L18.05 8.70005C18.8667 5.21671 17.8 3.49171 14.3083 2.67505ZM12.7417 11.1084C12.6667 11.3917 12.4167 11.575 12.1333 11.575C12.0833 11.575 12.0333 11.5667 11.975 11.5584L9.54999 10.9417C9.21665 10.8584 9.01665 10.5167 9.09999 10.1834C9.18332 9.85005 9.52499 9.65005 9.85832 9.73338L12.2833 10.35C12.625 10.4334 12.825 10.775 12.7417 11.1084ZM15.1833 8.29171C15.1083 8.57505 14.8583 8.75838 14.575 8.75838C14.525 8.75838 14.475 8.75005 14.4167 8.74171L10.375 7.71671C10.0417 7.63338 9.84165 7.29171 9.92499 6.95838C10.0083 6.62505 10.35 6.42505 10.6833 6.50838L14.725 7.53338C15.0667 7.60838 15.2667 7.95005 15.1833 8.29171Z" fill="#666A74"/>
</svg>
