<svg width="20" height="20" viewBox="0 0 20 20" fill="none" xmlns="http://www.w3.org/2000/svg">
<path d="M14.4917 13.0583L11.125 10H8.86667L5.5 13.0583C4.55833 13.9083 4.25 15.2167 4.70833 16.4C5.16667 17.575 6.28333 18.3333 7.54167 18.3333H12.45C13.7167 18.3333 14.825 17.575 15.2833 16.4C15.7417 15.2167 15.4333 13.9083 14.4917 13.0583ZM11.5167 15.1167H8.48333C8.16667 15.1167 7.91667 14.8583 7.91667 14.55C7.91667 14.2417 8.175 13.9833 8.48333 13.9833H11.5167C11.8333 13.9833 12.0833 14.2417 12.0833 14.55C12.0833 14.8583 11.825 15.1167 11.5167 15.1167Z" fill="#708D81"/>
<path d="M15.2917 3.59996C14.8333 2.42496 13.7167 1.66663 12.4583 1.66663H7.54167C6.28333 1.66663 5.16667 2.42496 4.70833 3.59996C4.25833 4.78329 4.56667 6.09163 5.50833 6.94163L8.875 9.99996H11.1333L14.5 6.94163C15.4333 6.09163 15.7417 4.78329 15.2917 3.59996ZM11.5167 6.02496H8.48333C8.16667 6.02496 7.91667 5.76663 7.91667 5.45829C7.91667 5.14996 8.175 4.89163 8.48333 4.89163H11.5167C11.8333 4.89163 12.0833 5.14996 12.0833 5.45829C12.0833 5.76663 11.825 6.02496 11.5167 6.02496Z" fill="#708D81"/>
</svg>
