<svg width="20" height="20" viewBox="0 0 20 20" fill="none" xmlns="http://www.w3.org/2000/svg">
<path d="M17.5583 4.35829C16.2167 4.22496 14.875 4.12496 13.525 4.04996V4.04163L13.3417 2.95829C13.2167 2.19163 13.0333 1.04163 11.0833 1.04163H8.89999C6.95832 1.04163 6.77499 2.14163 6.64165 2.94996L6.46666 4.01663C5.69166 4.06663 4.91666 4.11663 4.14166 4.19163L2.44166 4.35829C2.09166 4.39163 1.84166 4.69996 1.87499 5.04163C1.90832 5.38329 2.20832 5.63329 2.55832 5.59996L4.25832 5.43329C8.62499 4.99996 13.025 5.16663 17.4417 5.60829C17.4667 5.60829 17.4833 5.60829 17.5083 5.60829C17.825 5.60829 18.1 5.36663 18.1333 5.04163C18.1583 4.69996 17.9083 4.39163 17.5583 4.35829Z" fill="#666A74"/>
<path d="M16.025 6.78337C15.825 6.57504 15.55 6.45837 15.2667 6.45837H4.73335C4.45002 6.45837 4.16668 6.57504 3.97502 6.78337C3.78335 6.99171 3.67501 7.27504 3.69168 7.56671L4.20835 16.1167C4.30002 17.3834 4.41668 18.9667 7.32502 18.9667H12.675C15.5833 18.9667 15.7 17.3917 15.7917 16.1167L16.3083 7.57504C16.325 7.27504 16.2167 6.99171 16.025 6.78337ZM11.3833 14.7917H8.60835C8.26668 14.7917 7.98335 14.5084 7.98335 14.1667C7.98335 13.825 8.26668 13.5417 8.60835 13.5417H11.3833C11.725 13.5417 12.0083 13.825 12.0083 14.1667C12.0083 14.5084 11.725 14.7917 11.3833 14.7917ZM12.0833 11.4584H7.91668C7.57502 11.4584 7.29168 11.175 7.29168 10.8334C7.29168 10.4917 7.57502 10.2084 7.91668 10.2084H12.0833C12.425 10.2084 12.7083 10.4917 12.7083 10.8334C12.7083 11.175 12.425 11.4584 12.0833 11.4584Z" fill="#666A74"/>
</svg>
