<svg width="20" height="20" viewBox="0 0 20 20" fill="none" xmlns="http://www.w3.org/2000/svg">
<path d="M11.6667 2.43329V9.35829C11.6667 10.2083 10.975 10.9 10.125 10.9H2.50001C2.04167 10.9 1.66667 10.525 1.66667 10.0666V4.74163C1.66667 3.04163 3.04167 1.66663 4.74167 1.66663H10.8917C11.325 1.66663 11.6667 2.00829 11.6667 2.43329Z" fill="#666A74"/>
<path d="M17.9167 12.9166C18.15 12.9166 18.3333 13.1 18.3333 13.3333V14.1666C18.3333 15.55 17.2167 16.6666 15.8333 16.6666C15.8333 15.2916 14.7083 14.1666 13.3333 14.1666C11.9583 14.1666 10.8333 15.2916 10.8333 16.6666H9.16667C9.16667 15.2916 8.04167 14.1666 6.66667 14.1666C5.29167 14.1666 4.16667 15.2916 4.16667 16.6666C2.78334 16.6666 1.66667 15.55 1.66667 14.1666V12.5C1.66667 12.0416 2.04167 11.6666 2.50001 11.6666H10.4167C11.5667 11.6666 12.5 10.7333 12.5 9.58329V4.99996C12.5 4.54163 12.875 4.16663 13.3333 4.16663H14.0333C14.6333 4.16663 15.1833 4.49163 15.4833 5.00829L16.0167 5.94163C16.0917 6.07496 15.9917 6.24996 15.8333 6.24996C14.6833 6.24996 13.75 7.18329 13.75 8.33329V10.8333C13.75 11.9833 14.6833 12.9166 15.8333 12.9166H17.9167Z" fill="#666A74"/>
<path d="M6.66667 18.3333C7.58714 18.3333 8.33333 17.5871 8.33333 16.6667C8.33333 15.7462 7.58714 15 6.66667 15C5.74619 15 5 15.7462 5 16.6667C5 17.5871 5.74619 18.3333 6.66667 18.3333Z" fill="#666A74"/>
<path d="M13.3333 18.3333C14.2538 18.3333 15 17.5871 15 16.6667C15 15.7462 14.2538 15 13.3333 15C12.4129 15 11.6667 15.7462 11.6667 16.6667C11.6667 17.5871 12.4129 18.3333 13.3333 18.3333Z" fill="#666A74"/>
<path d="M18.3333 10.4417V11.6667H15.8333C15.375 11.6667 15 11.2917 15 10.8333V8.33333C15 7.875 15.375 7.5 15.8333 7.5H16.9083L18.1167 9.61667C18.2583 9.86667 18.3333 10.15 18.3333 10.4417Z" fill="#666A74"/>
</svg>
