<svg width="20" height="20" viewBox="0 0 20 20" fill="none" xmlns="http://www.w3.org/2000/svg">
<path d="M12.375 3.29171V6.45837H11.125V3.29171C11.125 3.06671 10.925 2.95837 10.7917 2.95837C10.75 2.95837 10.7083 2.96671 10.6667 2.98337L4.05834 5.47504C3.61667 5.64171 3.33334 6.05837 3.33334 6.53337V7.09171C2.575 7.65837 2.08334 8.56671 2.08334 9.59171V6.53337C2.08334 5.54171 2.69167 4.65837 3.61667 4.30837L10.2333 1.80837C10.4167 1.74171 10.6083 1.70837 10.7917 1.70837C11.625 1.70837 12.375 2.38337 12.375 3.29171Z" fill="#666A74"/>
<path d="M17.9167 12.0833V12.9166C17.9167 13.1416 17.7417 13.325 17.5083 13.3333H16.2917C15.85 13.3333 15.45 13.0083 15.4167 12.575C15.3917 12.3166 15.4917 12.075 15.6583 11.9083C15.8083 11.75 16.0167 11.6666 16.2417 11.6666H17.5C17.7417 11.675 17.9167 11.8583 17.9167 12.0833Z" fill="#666A74"/>
<path d="M16.2333 10.7917H17.0833C17.5417 10.7917 17.9167 10.4167 17.9167 9.95837V9.59171C17.9167 7.86671 16.5083 6.45837 14.7833 6.45837H5.21667C4.50834 6.45837 3.85834 6.69171 3.33334 7.09171C2.575 7.65837 2.08334 8.56671 2.08334 9.59171V15.2C2.08334 16.925 3.49167 18.3334 5.21667 18.3334H14.7833C16.5083 18.3334 17.9167 16.925 17.9167 15.2V15.0417C17.9167 14.5834 17.5417 14.2084 17.0833 14.2084H16.3583C15.5583 14.2084 14.7917 13.7167 14.5833 12.9417C14.4083 12.3084 14.6167 11.7 15.0333 11.2917C15.3417 10.975 15.7667 10.7917 16.2333 10.7917ZM11.6667 10.625H5.83334C5.49167 10.625 5.20834 10.3417 5.20834 10C5.20834 9.65837 5.49167 9.37504 5.83334 9.37504H11.6667C12.0083 9.37504 12.2917 9.65837 12.2917 10C12.2917 10.3417 12.0083 10.625 11.6667 10.625Z" fill="#666A74"/>
</svg>
